<svg width="35" height="35" viewBox="0 0 35 35" fill="none" xmlns="http://www.w3.org/2000/svg">
<path d="M17.502 26.1041C15.771 26.1041 14.0789 25.5908 12.6397 24.6291C11.2004 23.6674 10.0786 22.3006 9.41622 20.7013C8.7538 19.1021 8.58047 17.3424 8.91817 15.6447C9.25587 13.9469 10.0894 12.3875 11.3134 11.1635C12.5374 9.93951 14.0969 9.10596 15.7946 8.76827C17.4923 8.43057 19.252 8.6039 20.8512 9.26631C22.4505 9.92873 23.8174 11.0505 24.779 12.4897C25.7407 13.929 26.254 15.6211 26.254 17.3521C26.2514 19.6725 25.3284 21.897 23.6877 23.5378C22.0469 25.1785 19.8224 26.1014 17.502 26.1041ZM17.502 11.3301C16.311 11.3301 15.1467 11.6833 14.1564 12.345C13.166 13.0067 12.3942 13.9472 11.9384 15.0476C11.4826 16.1479 11.3634 17.3588 11.5957 18.5269C11.8281 19.6951 12.4016 20.7681 13.2438 21.6103C14.086 22.4525 15.159 23.026 16.3272 23.2584C17.4953 23.4907 18.7062 23.3715 19.8065 22.9157C20.9069 22.4599 21.8474 21.6881 22.5091 20.6977C23.1708 19.7074 23.524 18.5431 23.524 17.3521C23.5211 15.7562 22.8856 14.2266 21.7567 13.0985C20.6279 11.9704 19.0979 11.3359 17.502 11.3341V11.3301Z" fill="white"/>
<path d="M27.058 10.7379C26.602 10.7375 26.1564 10.6019 25.7775 10.3482C25.3986 10.0944 25.1034 9.73399 24.9294 9.31248C24.7554 8.89097 24.7103 8.42731 24.7999 7.98018C24.8895 7.53305 25.1097 7.12254 25.4326 6.80058C25.7555 6.47862 26.1667 6.25967 26.6141 6.17146C27.0615 6.08325 27.5251 6.12975 27.946 6.30504C28.367 6.48032 28.7265 6.77653 28.9791 7.1562C29.2317 7.53587 29.366 7.98193 29.365 8.43794C29.3629 9.0485 29.1189 9.63333 28.6865 10.0644C28.2542 10.4955 27.6686 10.7377 27.058 10.7379ZM27.058 8.39793C27.0487 8.39793 27.0398 8.40162 27.0333 8.40819C27.0267 8.41475 27.023 8.42365 27.023 8.43294C27.023 8.47194 27.093 8.47194 27.093 8.43294C27.0923 8.42418 27.0882 8.41604 27.0817 8.41011C27.0753 8.40418 27.0668 8.40089 27.058 8.40092V8.39793Z" fill="white"/>
<path d="M26.083 34.712H8.922C6.59536 34.7096 4.3647 33.7844 2.71942 32.1393C1.07415 30.4942 0.148643 28.2636 0.145996 25.937V8.776C0.148379 6.44919 1.07375 4.21836 2.71906 2.57306C4.36436 0.927756 6.59519 0.00238254 8.922 0H26.083C28.4097 0.00264672 30.6404 0.928088 32.2856 2.57333C33.9309 4.21858 34.8564 6.44927 34.859 8.776V25.937C34.8564 28.2636 33.9309 30.4942 32.2856 32.1393C30.6403 33.7844 28.4096 34.7096 26.083 34.712ZM8.922 2.72998C7.31916 2.73183 5.78252 3.36946 4.64923 4.50293C3.51595 5.6364 2.87857 7.17316 2.87698 8.776V25.937C2.87857 27.5398 3.51595 29.0766 4.64923 30.2101C5.78252 31.3435 7.31916 31.9811 8.922 31.983H26.083C27.686 31.9814 29.2229 31.3439 30.3564 30.2104C31.4899 29.0769 32.1274 27.54 32.129 25.937V8.776C32.1274 7.17299 31.4899 5.63606 30.3564 4.50256C29.2229 3.36906 27.686 2.73157 26.083 2.72998H8.922Z" fill="white"/>
</svg>
