<svg width="26" height="25" viewBox="0 0 26 25" fill="none" xmlns="http://www.w3.org/2000/svg">
<path d="M13.1279 18.66C11.8908 18.66 10.6815 18.2932 9.65285 17.6059C8.62422 16.9186 7.82247 15.9417 7.34905 14.7987C6.87562 13.6558 6.75177 12.3981 6.99312 11.1848C7.23447 9.97141 7.8302 8.85687 8.70497 7.9821C9.57975 7.10732 10.6943 6.51156 11.9076 6.27021C13.121 6.02886 14.3787 6.15274 15.5216 6.62617C16.6646 7.0996 17.6415 7.90131 18.3288 8.92994C19.0161 9.95857 19.3829 11.1679 19.3829 12.405C19.3811 14.0634 18.7215 15.6533 17.5488 16.8259C16.3762 17.9986 14.7863 18.6582 13.1279 18.66ZM13.1279 8.10105C12.2775 8.10105 11.4461 8.35323 10.739 8.82572C10.0318 9.29821 9.48072 9.96978 9.15526 10.7555C8.8298 11.5412 8.74462 12.4058 8.91054 13.2399C9.07646 14.0741 9.48599 14.8402 10.0874 15.4416C10.6887 16.043 11.4549 16.4525 12.289 16.6184C13.1232 16.7843 13.9877 16.6992 14.7735 16.3737C15.5592 16.0483 16.2307 15.4971 16.7032 14.79C17.1757 14.0829 17.4279 13.2515 17.4279 12.401C17.4258 11.2612 16.9721 10.1686 16.1662 9.36247C15.3603 8.55636 14.2678 8.10243 13.1279 8.10005V8.10105Z" fill="#FB6834"/>
<path d="M19.957 7.67694C19.6313 7.67694 19.3129 7.58034 19.042 7.39941C18.7712 7.21848 18.5601 6.96132 18.4354 6.66043C18.3107 6.35954 18.278 6.02844 18.3415 5.70898C18.405 5.38952 18.5617 5.09604 18.792 4.86566C19.0222 4.63528 19.3156 4.47836 19.635 4.4147C19.9544 4.35104 20.2856 4.38352 20.5865 4.50802C20.8875 4.63253 21.1448 4.84345 21.3259 5.11416C21.507 5.38488 21.6038 5.70323 21.604 6.02893C21.6037 6.46575 21.4301 6.88463 21.1213 7.1936C20.8125 7.50258 20.3938 7.67641 19.957 7.67694ZM19.957 6.00491C19.9503 6.00491 19.9439 6.00755 19.9393 6.01224C19.9346 6.01692 19.9319 6.02331 19.9319 6.02994C19.9319 6.05794 19.982 6.05794 19.982 6.02994C19.9821 6.02657 19.9815 6.0232 19.9803 6.02005C19.9791 6.0169 19.9773 6.01402 19.975 6.0116C19.9727 6.00917 19.9699 6.00724 19.9668 6.00592C19.9637 6.0046 19.9603 6.00393 19.957 6.00394V6.00491Z" fill="#FB6834"/>
<path d="M19.261 24.809H6.99197C5.3291 24.8071 3.73488 24.1457 2.55905 22.9699C1.38322 21.7941 0.721823 20.1999 0.719971 18.537V6.27197C0.721823 4.6091 1.38322 3.01488 2.55905 1.83905C3.73488 0.663224 5.3291 0.00185278 6.99197 0H19.257C20.9198 0.00185278 22.5141 0.663224 23.6899 1.83905C24.8657 3.01488 25.5271 4.6091 25.529 6.27197V18.537C25.5271 20.1992 24.8663 21.7928 23.6913 22.9685C22.5164 24.1442 20.9231 24.8061 19.261 24.809ZM6.99197 1.95099C5.84638 1.95231 4.74808 2.40799 3.93802 3.21805C3.12796 4.02811 2.67228 5.12638 2.67096 6.27197V18.537C2.67228 19.6826 3.12796 20.7809 3.93802 21.5909C4.74808 22.401 5.84638 22.8567 6.99197 22.858H19.257C20.4026 22.8567 21.5009 22.401 22.3109 21.5909C23.121 20.7809 23.5766 19.6826 23.578 18.537V6.27197C23.5766 5.12638 23.121 4.02811 22.3109 3.21805C21.5009 2.40799 20.4026 1.95231 19.257 1.95099H6.99197Z" fill="#FB6834"/>
</svg>
