<svg width="24" height="19" viewBox="0 0 24 19" fill="none" xmlns="http://www.w3.org/2000/svg">
<path d="M23.8351 2.23796C22.955 2.62283 22.0224 2.87427 21.0681 2.98396C22.071 2.3977 22.8247 1.46472 23.1871 0.360977C22.2405 0.915556 21.2063 1.30479 20.129 1.51198C19.6755 1.0366 19.13 0.658461 18.5258 0.400589C17.9215 0.142716 17.2711 0.0105062 16.6141 0.0119778C15.3471 0.00239164 14.1282 0.496301 13.2253 1.38515C12.3224 2.27399 11.8094 3.48501 11.7991 4.75197C11.7991 5.11607 11.84 5.47901 11.9211 5.83397C10.0136 5.74252 8.14605 5.2548 6.43744 4.40187C4.72883 3.54894 3.21661 2.3495 1.99707 0.879959C1.56881 1.60101 1.34318 2.42434 1.34406 3.26298C1.3458 4.04675 1.54263 4.81775 1.91675 5.50645C2.29087 6.19516 2.83052 6.7799 3.48706 7.20796C2.72324 7.18445 1.97571 6.9813 1.30505 6.61497V6.67497C1.30515 7.26338 1.41716 7.84639 1.63507 8.39296C1.93227 9.13774 2.41129 9.79622 3.02844 10.3082C3.6456 10.8202 4.38118 11.1694 5.16803 11.324C4.45817 11.513 3.71499 11.5407 2.99304 11.405C3.3091 12.3525 3.91205 13.1783 4.71832 13.768C5.52459 14.3576 6.49426 14.6819 7.49304 14.696C5.46235 16.2532 2.90459 16.9574 0.363037 16.659C2.57257 18.0541 5.13295 18.7927 7.74603 18.789C10.8633 18.8503 13.9045 17.8227 16.3456 15.8832C18.7868 13.9436 20.4752 11.2135 21.1201 8.16298C21.3352 7.22442 21.4455 6.26489 21.449 5.30199C21.449 5.09599 21.4491 4.88997 21.4351 4.68797C22.3751 4.02136 23.188 3.19154 23.8351 2.23796Z" fill="#FB6834"/>
</svg>
