<svg width="33" height="27" viewBox="0 0 33 27" fill="none" xmlns="http://www.w3.org/2000/svg">
<path d="M33 3.32898C31.7684 3.86732 30.4634 4.21886 29.128 4.37198C30.5315 3.55155 31.5862 2.24571 32.093 0.700957C30.7685 1.47719 29.3215 2.02201 27.814 2.31198C27.179 1.64776 26.4156 1.11959 25.5701 0.759611C24.7247 0.399633 23.8149 0.215341 22.896 0.217955C21.1233 0.204908 19.418 0.896276 18.1549 2.14007C16.8918 3.38387 16.1742 5.0783 16.16 6.85095C16.1601 7.36043 16.2175 7.86829 16.331 8.36496C13.6621 8.23686 11.0492 7.55434 8.65863 6.36087C6.26806 5.16739 4.15227 3.48911 2.44598 1.43295C1.84674 2.44174 1.53096 3.59362 1.53198 4.76697C1.53473 5.8636 1.81037 6.9423 2.33411 7.90579C2.85784 8.86928 3.61319 9.68729 4.53198 10.286C3.46325 10.2529 2.41736 9.96857 1.479 9.45596V9.53998C1.47986 10.362 1.63661 11.1764 1.94098 11.94C2.35738 12.9815 3.02781 13.9023 3.89117 14.6184C4.75454 15.3346 5.78339 15.8233 6.88397 16.04C5.89053 16.3047 4.85042 16.3436 3.83997 16.154C4.28285 17.4785 5.12644 18.6327 6.25403 19.4568C7.38162 20.2809 8.73747 20.7342 10.134 20.754C7.29252 22.9331 3.71341 23.9186 0.156982 23.501C3.24845 25.453 6.83082 26.4868 10.487 26.482C14.8483 26.5667 19.1028 25.1284 22.5181 22.4147C25.9334 19.701 28.2959 15.8816 29.199 11.614C29.4997 10.3017 29.654 8.96019 29.659 7.61395C29.659 7.32595 29.653 7.03797 29.639 6.75497C30.9552 5.82313 32.0935 4.66276 33 3.32898Z" fill="white"/>
</svg>
