<svg width="296" height="296" viewBox="0 0 296 296" fill="none" xmlns="http://www.w3.org/2000/svg">
<path d="M153.914 94.3562L211.443 130.77L200.713 138.577L147.537 104.92L94.8802 138.565L84.2242 130.733L141.124 94.387C143.03 93.1608 145.248 92.5062 147.514 92.5008C149.781 92.4953 152.002 93.1392 153.914 94.3562Z" fill="white"/>
<path fill-rule="evenodd" clip-rule="evenodd" d="M42.1491 128.964C35.0081 123.722 35.3535 112.628 42.8028 107.874L141.124 45.0476C143.03 43.8213 145.248 43.1668 147.514 43.1613C149.781 43.1558 152.002 43.7997 153.914 45.0167L253.154 107.837C260.659 112.585 261.004 123.747 253.801 128.988L154.574 201.2C150.343 204.283 144.701 204.265 140.477 201.169L42.1491 128.957V128.964ZM49.4443 118.258L147.537 55.5864L246.556 118.264L246.586 118.283L246.593 118.301C246.64 118.399 246.665 118.507 246.667 118.616C246.672 118.732 246.65 118.848 246.605 118.955C246.605 118.974 246.593 118.986 246.593 118.986L246.549 119.023L147.544 191.056L49.4505 119.023C49.4346 119.012 49.4201 119 49.4073 118.986L49.3888 118.949C49.3461 118.843 49.3272 118.73 49.3333 118.616C49.3345 118.507 49.3598 118.399 49.4073 118.301L49.4135 118.283L49.4443 118.258Z" fill="white"/>
<path d="M50.7948 152.095L61.4508 159.926L49.4443 167.592C49.4333 167.599 49.423 167.607 49.4135 167.616L49.4073 167.635C49.3606 167.731 49.3354 167.836 49.3333 167.943C49.3263 168.068 49.3495 168.193 49.4011 168.307C49.4029 168.311 49.405 168.315 49.4073 168.319L49.4505 168.356L147.544 240.389L246.549 168.356L246.593 168.319L246.599 168.307L246.611 168.288C246.655 168.181 246.673 168.065 246.667 167.949C246.665 167.84 246.64 167.733 246.593 167.635L246.586 167.616L246.556 167.598L234.346 159.865L245.076 152.064L253.154 157.176C260.659 161.924 261.004 173.086 253.801 178.328L154.574 250.533C150.343 253.617 144.701 253.598 140.477 250.502L42.1491 178.291C35.0081 173.049 35.3535 161.961 42.8028 157.201L50.7948 152.095Z" fill="white"/>
</svg>
